<svg xmlns="http://www.w3.org/2000/svg" width="800" height="567.974" xmlns:v="https://vecta.io/nano"><path d="M0 0h800v567.974H0z" fill="#fe0000"/><g fill="#fff"><path d="M304.377 129.715L55.757 378.76s-31.875 30.174-2.975 60.349 56.099 6.375 60.774 2.125 166.597-162.772 166.597-162.772 14.45-14.875 14.45-.85v127.072s-5.525 48.874 42.074 48.874 42.499-38.674 42.924-47.599-.425-246.07-.425-246.07 1.7-32.725-23.799-41.649-43.775 4.25-51 11.475z"/><circle cx="250.615" cy="368.347" r="29.537"/><path d="M528.772 115.265h-84.573S400 110.165 400 156.489s32.3 43.349 39.949 43.349h34.424s10.2-.425 10.2 11.475v204.846s-2.125 37.399 42.074 36.975 42.499-35.699 42.499-35.699l.425-205.271s-2.125-12.75 12.75-12.75h30.6s40.799-.425 40.799-42.074-42.499-42.074-42.499-42.074h-82.449v-.001zm145.347 42.074v254.569s-3.399 41.649 45.05 41.649c44.199 0 40.374-39.949 40.374-39.949l.425-259.245s.427-39.099-42.924-39.099c-43.774.001-42.925 42.075-42.925 42.075z"/></g><circle cx="717.256" cy="157.552" r="28.262" fill="#fe0000"/></svg>