<?xml version="1.0" encoding="UTF-8" standalone="no"?>
<!-- Generator: Adobe Illustrator 26.3.0, SVG Export Plug-In . SVG Version: 6.00 Build 0)  -->

<svg
   version="1.1"
   id="Badges"
   x="0px"
   y="0px"
   viewBox="0 0 570 179"
   style="enable-background:new 0 0 570 179;"
   xml:space="preserve"
   sodipodi:docname="Nvidia GeForce Badge (2022).svg"
   inkscape:version="1.2 (dc2aedaf03, 2022-05-15)"
   xmlns:inkscape="http://www.inkscape.org/namespaces/inkscape"
   xmlns:sodipodi="http://sodipodi.sourceforge.net/DTD/sodipodi-0.dtd"
   xmlns="http://www.w3.org/2000/svg"
   xmlns:svg="http://www.w3.org/2000/svg"><defs
   id="defs73">
	
	
	
	
	
	
	
	
	
	
	
	
	
</defs><sodipodi:namedview
   id="namedview71"
   pagecolor="#ffffff"
   bordercolor="#000000"
   borderopacity="0.25"
   inkscape:showpageshadow="2"
   inkscape:pageopacity="0.0"
   inkscape:pagecheckerboard="0"
   inkscape:deskcolor="#d1d1d1"
   showgrid="false"
   inkscape:zoom="3.122807"
   inkscape:cx="285"
   inkscape:cy="89.342697"
   inkscape:window-width="1920"
   inkscape:window-height="1017"
   inkscape:window-x="-8"
   inkscape:window-y="-8"
   inkscape:window-maximized="1"
   inkscape:current-layer="Badges" />
<style
   type="text/css"
   id="style42">
	.st0{fill:#76B900;}
	.st1{fill:#1E1E1E;}
	.st2{fill:#FFFFFF;}
</style>
<path
   class="st0"
   d="M 203.5,3.4 V 173.6 H 2.4 V 3.4 Z m 345.4,0 v 170.2 h 17.8 V 3.4 Z"
   id="path44" /><rect
   x="203.5"
   y="3.4000001"
   class="st1"
   width="345.39999"
   height="170.2"
   id="rect46" /><path
   id="NVIDIA_Logo"
   class="st1"
   d="m 91.5,115.8 v 25.6 h 7.2 v -25.6 z m -56.9,0 v 25.6 h 7.3 v -19.5 h 5.6 c 1.9,0 3.2,0.5 4.1,1.4 1.1,1.2 1.6,3.2 1.6,6.8 v 11.2 h 7.1 v -14.2 c 0,-10.1 -6.4,-11.5 -12.7,-11.5 l -13,0.2 m 68.5,0 v 25.6 h 11.7 c 6.2,0 8.3,-1 10.5,-3.4 1.6,-1.6 2.6,-5.2 2.6,-9.1 0,-3.6 -0.9,-6.8 -2.3,-8.8 -2.7,-3.6 -6.5,-4.3 -12.3,-4.3 z m 7.2,5.6 h 3.1 c 4.5,0 7.4,2 7.4,7.3 0,5.3 -2.9,7.3 -7.4,7.3 h -3.1 z M 81,115.8 75,136.1 69.2,115.8 h -7.8 l 8.3,25.6 h 10.4 l 8.3,-25.6 H 81 Z m 50.2,25.6 h 7.2 v -25.6 h -7.2 z m 20.3,-25.6 -10.1,25.6 h 7.1 l 1.6,-4.5 H 162 l 1.5,4.5 h 7.7 L 161,115.8 Z m 4.7,4.7 4.4,12 h -8.9 z M 81.9,55.9 v -6.1 c 0.6,0 1.2,-0.1 1.8,-0.1 16.8,-0.5 27.8,14.4 27.8,14.4 0,0 -11.9,16.5 -24.6,16.5 -1.8,0 -3.5,-0.3 -5,-0.8 V 61.2 c 6.5,0.8 7.9,3.7 11.8,10.2 l 8.7,-7.4 c 0,0 -6.4,-8.4 -17.2,-8.4 -1.1,0.1 -2.2,0.2 -3.3,0.3 m 0,-20.3 v 9.2 c 0.6,0 1.2,-0.1 1.8,-0.1 23.4,-0.8 38.6,19.2 38.6,19.2 0,0 -17.5,21.3 -35.7,21.3 -1.7,0 -3.2,-0.2 -4.7,-0.4 v 5.7 c 1.3,0.2 2.6,0.3 3.9,0.3 17,0 29.2,-8.7 41.1,-18.9 2,1.6 10,5.4 11.7,7.1 -11.3,9.5 -37.6,17.1 -52.5,17.1 -1.4,0 -2.8,-0.1 -4.2,-0.2 v 8 h 64.5 v -68 z m 0,44.2 v 4.8 c -15.7,-2.8 -20,-19.1 -20,-19.1 0,0 7.5,-8.3 20,-9.7 v 5.3 c 0,0 0,0 0,0 -6.6,-0.8 -11.7,5.3 -11.7,5.3 0,0 2.9,10.5 11.7,13.4 M 54,64.9 c 0,0 9.3,-13.7 27.9,-15.1 v -5 c -20.6,1.6 -38.4,19.1 -38.4,19.1 0,0 10.1,29.1 38.4,31.8 V 90.4 C 61.1,87.8 54,64.9 54,64.9 Z" /><g
   id="g253"
   transform="translate(0,30)"><polygon
     class="st2"
     points="328.3,63.7 343.5,63.7 344.6,55.8 328.3,55.8 328.3,44.4 348.6,44.4 348.6,36.5 319,36.5 319,81 328.3,81 "
     id="polygon49" /><path
     class="st2"
     d="m 254.9,81.9 h 0.5 c 3.4,0 6.6,-0.4 9.6,-1.3 3,-0.9 5.5,-2.2 7.7,-3.9 V 56.2 h -17.4 l -1.1,7.8 h 9.5 v 8.2 c -1.1,0.5 -2.4,0.9 -3.9,1.1 -1.5,0.3 -3.1,0.4 -4.7,0.4 h -0.4 c -4.1,0 -7.1,-1.1 -9,-3.2 C 244,68.4 243,65 243,60.4 v -2.9 c 0,-4.5 1,-7.9 2.9,-10.3 1.9,-2.4 4.7,-3.5 8.4,-3.5 h 0.4 c 4.7,0 7.6,1.8 8.8,5.5 l 8.5,-3 c -1.3,-3.4 -3.4,-6.1 -6.4,-7.9 -3,-1.8 -6.6,-2.8 -10.9,-2.8 h -0.6 c -4.3,0 -8,0.9 -11,2.6 -3.1,1.8 -5.4,4.3 -7,7.6 -1.6,3.3 -2.5,7.2 -2.5,11.9 v 2.5 c 0.1,14.6 7.2,21.8 21.3,21.8 z"
     id="path51" /><polygon
     class="st2"
     points="516.3,36.5 486.7,36.5 486.7,81 516.7,81 516.7,73.2 496,73.2 496,62.5 511.4,62.5 512.5,54.6 496,54.6 496,44.4 516.3,44.4 "
     id="polygon53" /><path
     class="st2"
     d="M 410.8,81 V 65.1 h 6.9 l 8.8,15.9 h 10.1 l -9.7,-17.3 c 2.6,-1.1 4.7,-2.6 6.1,-4.7 1.5,-2.1 2.2,-4.6 2.2,-7.6 v -1.2 c 0,-4.3 -1.5,-7.6 -4.6,-10.1 -3,-2.4 -7.1,-3.6 -12.3,-3.6 h -16.9 v 44.6 h 9.4 z m 7.3,-36.5 c 2.2,0 4.1,0.4 5.6,1.3 1.5,0.9 2.2,2.3 2.2,4.2 v 1.6 c 0,2 -0.7,3.4 -2.2,4.3 -1.5,0.8 -3.4,1.3 -5.6,1.3 h -7.3 V 44.6 h 7.3 z"
     id="path55" /><path
     class="st2"
     d="m 461.6,81.9 h 0.5 c 4.5,0 8.3,-1 11.4,-2.9 3.1,-2 5.2,-4.7 6.5,-8.2 l -8.5,-3.3 c -0.7,2.2 -1.8,3.8 -3.5,4.8 -1.7,1 -3.6,1.5 -5.9,1.5 h -0.4 c -3.6,0 -6.4,-1.1 -8.2,-3.3 -1.9,-2.2 -2.8,-5.6 -2.8,-10.3 v -2.9 c 0,-4.5 1,-7.9 2.9,-10.2 2,-2.2 4.7,-3.4 8.1,-3.4 h 0.4 c 2.2,0 4.2,0.5 5.8,1.5 1.6,1 2.7,2.6 3.3,4.8 l 8.7,-3.1 c -1.2,-3.6 -3.4,-6.5 -6.4,-8.5 -3,-2 -6.8,-3 -11.3,-3 h -0.5 c -4.3,0 -8,0.9 -11,2.7 -3,1.8 -5.3,4.3 -6.9,7.6 -1.6,3.3 -2.4,7.2 -2.4,11.7 V 60 c 0,6.9 1.7,12.3 5.2,16.2 3.4,3.8 8.4,5.7 15,5.7 z"
     id="path59" /><path
     class="st2"
     d="m 392,71.7 c 1.6,-3.3 2.5,-7.2 2.5,-11.6 v -2.5 c 0,-4.5 -0.8,-8.4 -2.5,-11.7 -1.6,-3.3 -4,-5.8 -7.1,-7.6 -3.1,-1.8 -6.8,-2.7 -11.1,-2.7 h -0.6 c -4.3,0 -8,0.9 -11.1,2.7 -3.1,1.8 -5.4,4.3 -7.1,7.6 -1.6,3.3 -2.5,7.2 -2.5,11.7 V 60 c 0,4.5 0.8,8.4 2.5,11.6 1.6,3.3 4,5.8 7.1,7.6 3.1,1.8 6.8,2.7 11.1,2.7 h 0.6 c 4.3,0 8,-0.9 11.1,-2.7 3.1,-1.7 5.5,-4.2 7.1,-7.5 z m -18.2,2.1 h -0.5 c -3.5,0 -6.2,-1.1 -8.3,-3.4 -2.1,-2.2 -3.1,-5.6 -3.1,-10.2 v -2.9 c 0,-4.5 1,-7.9 3.1,-10.2 2.1,-2.2 4.8,-3.4 8.3,-3.4 h 0.5 c 3.5,0 6.2,1.1 8.3,3.4 2.1,2.3 3.1,5.6 3.1,10.2 v 2.9 c 0,4.5 -1,7.9 -3.1,10.2 -2.1,2.3 -4.8,3.4 -8.3,3.4 z"
     id="path63" /><polygon
     class="st2"
     points="310.8,81 310.8,73.2 290.1,73.2 290.1,62.5 305.5,62.5 306.6,54.6 290.1,54.6 290.1,44.4 310.4,44.4 310.4,36.5 280.8,36.5 280.8,81 "
     id="polygon65" /></g>
</svg>
