<?xml version="1.0" encoding="utf-8"?>
<!-- Generator: Adobe Illustrator 12.0.0, SVG Export Plug-In . SVG Version: 6.00 Build 51448)  -->
<!DOCTYPE svg PUBLIC "-//W3C//DTD SVG 1.1//EN" "http://www.w3.org/Graphics/SVG/1.1/DTD/svg11.dtd" [
	<!ENTITY ns_svg "http://www.w3.org/2000/svg">
	<!ENTITY ns_xlink "http://www.w3.org/1999/xlink">
]>
<svg  version="1.1" id="Layer_1" xmlns="&ns_svg;" xmlns:xlink="&ns_xlink;" width="730.816" height="249.325"
	 viewBox="0 0 730.816 249.325" overflow="visible" enable-background="new 0 0 730.816 249.325" xml:space="preserve">
<path fill="#00539B" d="M92.747,43.396c-1.14,0.772-3.38,2.328-3.75,2.249c-0.39-0.021-1.6-0.848-3.702-2.225
	C48.679,19.033-0.359,49.34,0.234,81.681v75.79h47.66V86.336c0.615-6.166,14.224-8.048,15.758,0v71.135h49.854V86.01
	c0.602-6.804,15.753-6.804,15.753,0.326v71.135h47.664V80.17C177.514,49.495,130.594,17.994,92.747,43.396z"/>
<path fill="#00539B" d="M256.767,35.61c-95.926,0.279-85.405,133.356,4.322,121.861v-46.37
	c-23.246,8.337-26.296-10.833-24.148-17.949c4.343-11.471,22.907-19.496,30.628,1.87v62.45h47.055V90.039
	C314.906,81.681,301.899,38.071,256.767,35.61z"/>
<path fill="#00539B" d="M373.697,106.734V82.005h16.396V36.201h-15.777V0h-49.217v103.357c0,30.618,25.394,60.327,65.315,55.077
	v-43.643C386.063,114.792,375.85,116.674,373.697,106.734z"/>
<path fill="#00539B" d="M406.8,89.412v68.397h47.633l-0.294-63.752c0.916-6.18,3.701-9.567,14.848-8.047V39.291
	C438.997,36.201,409.575,56.019,406.8,89.412z"/>
<path fill="#00539B" d="M729.217,39.929h-48.908v22.604c-0.919,14.188-17.004,10.182-16.717,0.291V39.612h-48.275
	c-0.592,22.921,1.254,37.758,16.393,54.445c0.324,1.858-20.104,10.832-16.393,64.04h48.275v-33.076
	c4.006-10.229,15.467-8.649,16.717,0.939v32.137h47.969c1.846-44.535-4.96-48.854-16.406-64.04
	C731.958,78.604,729.217,47.66,729.217,39.929z"/>
<path fill="#00539B" d="M542.938,35.294c-34.357,0-62.2,27.82-62.2,62.479c0,34.043,27.843,62.197,62.2,62.197
	c34.036,0,62.207-28.154,62.207-62.197C605.145,63.114,576.974,35.294,542.938,35.294z M542.938,113.898
	c-8.969,0-16.092-7.164-16.092-16.126c0-8.976,7.123-16.396,16.092-16.396c8.668,0,16.058,7.42,16.058,16.396
	C558.995,106.734,551.605,113.898,542.938,113.898z"/>
<g>
	<path fill="#00539B" d="M35.581,202.485c-3.315-1.518-7.62-2.246-11.061-2.246c-10.018,0-15.548,6.666-15.548,15.33
		c0,8.609,5.407,15.094,14.564,15.094c2.334,0,4.18-0.246,5.655-0.605v-11.033h-9.096v-6.664h17.329v22.783
		c-4.547,1.211-9.279,2.185-13.889,2.185C9.647,237.328,0,230.479,0,216.181c0-14.484,8.972-22.605,23.536-22.605
		c4.979,0,8.914,0.666,12.599,1.76L35.581,202.485z"/>
	<path fill="#00539B" d="M45.476,205.394h7.311v7.09h0.123c0.369-2.912,3.751-7.817,8.668-7.817c0.796,0,1.658,0,2.518,0.239v8.183
		c-0.737-0.421-2.213-0.667-3.687-0.667c-6.699,0-6.699,8.244-6.699,12.726v11.454h-8.234V205.394z"/>
	<path fill="#00539B" d="M70.181,207.028c3.194-1.457,7.496-2.362,10.999-2.362c9.649,0,13.645,3.94,13.645,13.149v3.998
		c0,3.148,0.062,5.518,0.123,7.814c0.062,2.368,0.185,4.549,0.369,6.973h-7.253c-0.308-1.635-0.308-3.695-0.369-4.666h-0.123
		c-1.904,3.455-6.022,5.394-9.772,5.394c-5.592,0-11.061-3.333-11.061-9.27c0-4.665,2.273-7.394,5.407-8.911
		s7.191-1.814,10.632-1.814h4.547c0-5.035-2.273-6.727-7.13-6.727c-3.5,0-7.005,1.333-9.769,3.395L70.181,207.028z M79.827,231.392
		c2.521,0,4.49-1.091,5.78-2.789c1.35-1.758,1.719-4,1.719-6.423h-3.563c-3.69,0-9.157,0.604-9.157,5.394
		C74.605,230.239,76.88,231.392,79.827,231.392z"/>
	<path fill="#00539B" d="M102.507,205.394h7.864v4.424h0.123c1.844-3.029,4.979-5.151,9.834-5.151
		c9.71,0,13.273,7.632,13.273,16.235c0,8.552-3.563,16.427-13.458,16.427c-3.505,0-6.39-0.851-9.28-4.307h-0.123v16.304h-8.233
		V205.394z M110.802,220.901c0,4.43,1.783,10.121,7.251,10.121c5.407,0,6.945-5.814,6.945-10.121c0-4.177-1.477-9.936-6.822-9.936
		C112.892,210.966,110.802,216.544,110.802,220.901z"/>
	<path fill="#00539B" d="M139.624,191.155h8.235v18.477h0.123c2.09-3.024,5.652-4.966,9.955-4.966
		c7.497,0,10.756,5.212,10.756,12.236v19.698h-8.237v-16.663c0-3.817-0.062-8.972-5.346-8.972c-5.961,0-7.251,6.367-7.251,10.366
		v15.269h-8.235V191.155z"/>
	<path fill="#00539B" d="M176.928,191.94h8.234v7.756h-8.234V191.94z M176.928,205.394h8.234v31.207h-8.234V205.394z"/>
	<path fill="#00539B" d="M213.924,212.12c-1.475-0.666-3.074-1.154-5.595-1.154c-5.098,0-8.357,3.998-8.357,9.881
		c0,5.756,2.767,10.176,8.542,10.176c2.336,0,4.918-0.845,6.33-1.449l0.369,6.727c-2.396,0.721-4.855,1.028-8.234,1.028
		c-10.387,0-15.61-6.973-15.61-16.481c0-9.03,5.407-16.181,15.302-16.181c3.319,0,5.717,0.362,7.991,1.028L213.924,212.12z"/>
	<path fill="#00539B" d="M239.058,211.939c-2.521-0.851-4.366-1.333-7.374-1.333c-2.213,0-4.857,0.786-4.857,3.452
		c0,4.966,14.321,1.818,14.321,13.087c0,7.271-6.576,10.183-13.277,10.183c-3.133,0-6.329-0.544-9.34-1.333l0.49-6.665
		c2.583,1.271,5.286,2.062,8.113,2.062c2.09,0,5.407-0.79,5.407-3.818c0-6.121-14.318-1.945-14.318-13.214
		c0-6.727,5.961-9.693,12.414-9.693c3.873,0,6.39,0.608,8.972,1.151L239.058,211.939z"/>
	<path fill="#00539B" d="M266.772,211.331h-6.084v-5.938h6.084v-4.364c0-6.245,3.565-10.603,10.08-10.603
		c2.088,0,4.423,0.297,6.021,0.666l-0.677,6.727c-0.737-0.43-1.783-1.097-3.563-1.097c-2.765,0-3.625,2.368-3.625,4.788v3.883h7.188
		v5.938h-7.188v25.27h-8.235V211.331z"/>
	<path fill="#00539B" d="M301.74,204.666c9.402,0,16.592,6.237,16.592,16.543c0,8.969-6.084,16.119-16.592,16.119
		c-10.449,0-16.531-7.15-16.531-16.119C285.209,210.903,292.398,204.666,301.74,204.666z M301.74,231.022
		c6.328,0,7.987-5.572,7.987-10.787c0-4.782-2.582-9.27-7.987-9.27c-5.348,0-7.928,4.604-7.928,9.27
		C293.812,225.393,295.473,231.022,301.74,231.022z"/>
	<path fill="#00539B" d="M324.54,205.394h7.314v7.09h0.123c0.366-2.912,3.746-7.817,8.665-7.817c0.796,0,1.658,0,2.519,0.239v8.183
		c-0.738-0.421-2.211-0.667-3.688-0.667c-6.699,0-6.699,8.244-6.699,12.726v11.454h-8.234V205.394z"/>
	<path fill="#00539B" d="M364.485,194.303h10.876c9.345,0,17.883,2.666,17.883,12.786c0,9.875-7.308,13.453-16.529,13.453h-3.63
		v16.059h-8.6V194.303z M373.085,213.878h3.015c4.3,0,8.176-1.395,8.176-6.307c0-4.904-3.753-6.604-8.176-6.604h-3.015V213.878z"/>
	<path fill="#00539B" d="M398.408,205.394h7.312v7.09h0.123c0.369-2.912,3.746-7.817,8.665-7.817c0.799,0,1.66,0,2.519,0.239v8.183
		c-0.735-0.421-2.212-0.667-3.685-0.667c-6.699,0-6.699,8.244-6.699,12.726v11.454h-8.234V205.394z"/>
	<path fill="#00539B" d="M435.098,204.666c9.402,0,16.59,6.237,16.59,16.543c0,8.969-6.087,16.119-16.59,16.119
		c-10.449,0-16.533-7.15-16.533-16.119C418.564,210.903,425.756,204.666,435.098,204.666z M435.098,231.022
		c6.333,0,7.987-5.572,7.987-10.787c0-4.782-2.577-9.27-7.987-9.27c-5.35,0-7.934,4.604-7.934,9.27
		C427.164,225.393,428.825,231.022,435.098,231.022z"/>
	<path fill="#00539B" d="M460.722,211.331h-6.084v-5.938h6.084v-4.364c0-6.245,3.562-10.603,10.079-10.603
		c2.089,0,4.427,0.297,6.026,0.666l-0.677,6.727c-0.738-0.43-1.784-1.097-3.568-1.097c-2.766,0-3.623,2.368-3.623,4.788v3.883h7.191
		v5.938h-7.191v25.27h-8.237V211.331z"/>
	<path fill="#00539B" d="M506.566,234.843c-3.011,1.635-6.456,2.485-10.872,2.485c-10.452,0-16.536-5.937-16.536-16.181
		c0-9.027,4.854-16.481,14.69-16.481c11.737,0,15.053,7.94,15.053,18.847h-21.875c0.369,5.027,3.931,7.879,9.037,7.879
		c3.985,0,7.431-1.457,10.503-3.152V234.843z M501.033,217.938c-0.246-3.938-2.085-7.332-6.692-7.332
		c-4.61,0-6.945,3.148-7.314,7.332H501.033z"/>
	<path fill="#00539B" d="M533.729,211.939c-2.516-0.851-4.361-1.333-7.372-1.333c-2.215,0-4.857,0.786-4.857,3.452
		c0,4.966,14.321,1.818,14.321,13.087c0,7.271-6.576,10.183-13.275,10.183c-3.138,0-6.33-0.544-9.338-1.333l0.492-6.665
		c2.577,1.271,5.277,2.062,8.107,2.062c2.089,0,5.411-0.79,5.411-3.818c0-6.121-14.318-1.945-14.318-13.214
		c0-6.727,5.954-9.693,12.41-9.693c3.873,0,6.396,0.608,8.973,1.151L533.729,211.939z"/>
	<path fill="#00539B" d="M560.584,211.939c-2.519-0.851-4.364-1.333-7.372-1.333c-2.215,0-4.854,0.786-4.854,3.452
		c0,4.966,14.317,1.818,14.317,13.087c0,7.271-6.579,10.183-13.271,10.183c-3.138,0-6.334-0.544-9.345-1.333l0.492-6.665
		c2.581,1.271,5.284,2.062,8.114,2.062c2.085,0,5.407-0.79,5.407-3.818c0-6.121-14.321-1.945-14.321-13.214
		c0-6.727,5.961-9.693,12.414-9.693c3.869,0,6.392,0.608,8.973,1.151L560.584,211.939z"/>
	<path fill="#00539B" d="M568.818,191.94h8.234v7.756h-8.234V191.94z M568.818,205.394h8.234v31.207h-8.234V205.394z"/>
	<path fill="#00539B" d="M599.792,204.666c9.399,0,16.595,6.237,16.595,16.543c0,8.969-6.088,16.119-16.595,16.119
		c-10.445,0-16.529-7.15-16.529-16.119C583.263,210.903,590.454,204.666,599.792,204.666z M599.792,231.022
		c6.33,0,7.991-5.572,7.991-10.787c0-4.782-2.584-9.27-7.991-9.27c-5.346,0-7.93,4.604-7.93,9.27
		C591.862,225.393,593.523,231.022,599.792,231.022z"/>
	<path fill="#00539B" d="M622.412,205.394h7.8v4.238h0.123c2.581-3.571,6.084-4.966,10.391-4.966
		c7.492,0,10.749,5.212,10.749,12.236v19.698h-8.233v-16.663c0-3.817-0.062-8.972-5.346-8.972c-5.964,0-7.253,6.367-7.253,10.366
		v15.269h-8.23V205.394z"/>
	<path fill="#00539B" d="M660.939,207.028c3.192-1.457,7.496-2.362,11.002-2.362c9.649,0,13.642,3.94,13.642,13.149v3.998
		c0,3.148,0.062,5.518,0.123,7.814c0.062,2.368,0.185,4.549,0.369,6.973h-7.253c-0.308-1.635-0.308-3.695-0.369-4.666h-0.123
		c-1.9,3.455-6.02,5.394-9.771,5.394c-5.589,0-11.058-3.333-11.058-9.27c0-4.665,2.27-7.394,5.407-8.911
		c3.131-1.518,7.188-1.814,10.63-1.814h4.546c0-5.035-2.27-6.727-7.127-6.727c-3.503,0-7.01,1.333-9.771,3.395L660.939,207.028z
		 M670.588,231.392c2.52,0,4.488-1.091,5.78-2.789c1.347-1.758,1.716-4,1.716-6.423h-3.562c-3.688,0-9.16,0.604-9.16,5.394
		C665.362,230.239,667.639,231.392,670.588,231.392z"/>
	<path fill="#00539B" d="M693.451,191.155h8.23v45.445h-8.23V191.155z"/>
	<path fill="#00539B" d="M728.725,211.939c-2.52-0.851-4.365-1.333-7.376-1.333c-2.215,0-4.854,0.786-4.854,3.452
		c0,4.966,14.321,1.818,14.321,13.087c0,7.271-6.58,10.183-13.275,10.183c-3.138,0-6.33-0.544-9.342-1.333l0.492-6.665
		c2.581,1.271,5.288,2.062,8.111,2.062c2.085,0,5.407-0.79,5.407-3.818c0-6.121-14.317-1.945-14.317-13.214
		c0-6.727,5.964-9.693,12.41-9.693c3.873,0,6.395,0.608,8.976,1.151L728.725,211.939z"/>
</g>
</svg>
