<?xml version="1.0" encoding="UTF-8" standalone="no"?>
<svg
   xmlns:dc="http://purl.org/dc/elements/1.1/"
   xmlns:cc="http://creativecommons.org/ns#"
   xmlns:rdf="http://www.w3.org/1999/02/22-rdf-syntax-ns#"
   xmlns:svg="http://www.w3.org/2000/svg"
   xmlns="http://www.w3.org/2000/svg"
   xmlns:sodipodi="http://sodipodi.sourceforge.net/DTD/sodipodi-0.dtd"
   xmlns:inkscape="http://www.inkscape.org/namespaces/inkscape"
   version="1.1"
   id="svg833"
   width="1260"
   height="195"
   viewBox="0 0 1260 195"
   sodipodi:docname="New_AMD_Radeon_wordmark_(2020).svg"
   inkscape:version="1.0 (4035a4fb49, 2020-05-01)">
  <metadata
     id="metadata839">
    <rdf:RDF>
      <cc:Work
         rdf:about="">
        <dc:format>image/svg+xml</dc:format>
        <dc:type
           rdf:resource="http://purl.org/dc/dcmitype/StillImage" />
        <dc:title />
      </cc:Work>
    </rdf:RDF>
  </metadata>
  <defs
     id="defs837" />
  <sodipodi:namedview
     inkscape:document-rotation="0"
     pagecolor="#ffffff"
     bordercolor="#666666"
     borderopacity="1"
     objecttolerance="10"
     gridtolerance="10"
     guidetolerance="10"
     inkscape:pageopacity="0"
     inkscape:pageshadow="2"
     inkscape:window-width="1920"
     inkscape:window-height="1009"
     id="namedview835"
     showgrid="false"
     inkscape:zoom="1.0952381"
     inkscape:cx="566.76208"
     inkscape:cy="131.81174"
     inkscape:window-x="-8"
     inkscape:window-y="-8"
     inkscape:window-maximized="1"
     inkscape:current-layer="g845" />
  <g
     inkscape:groupmode="layer"
     inkscape:label="Image"
     id="g841">
    <g
       id="g845">
      <path
         d="M 3,133 V 81 h 68.3 c 51.78889,0 68.59009,-0.290093 69.5,-1.2 1.26456,-1.26456 1.77748,-29.131531 0.59301,-32.218213 C 140.84764,46.160585 133.79194,46 71.893011,46 H 3 V 29 12 h 72.462487 c 70.837553,0 72.586593,0.04643 77.996663,2.070599 7.78725,2.913585 15.50242,10.244208 19.0894,18.137917 2.78348,6.1255 2.86972,6.824035 3.269,26.477354 0.58421,28.756043 -1.02961,36.164516 -9.99708,45.89308 -4.87005,5.28337 -12.59452,9.25165 -19.63106,10.08502 -2.85418,0.33804 -5.18941,0.73965 -5.18941,0.89246 0,0.32022 35.16192,61.30281 38.16651,66.19357 L 181.16312,185 161.33156,184.9863 141.5,184.97258 121.49037,150.23629 101.48073,115.5 69.240366,115.23615 37,114.97229 V 149.98615 185 H 20 3 Z m 202.54135,50.77198 C 205.81384,183.07239 222.61087,144.25 242.86807,97.5 l 36.83128,-85 17.43056,-0.27218 17.43056,-0.272179 36.69079,84.772179 c 20.17994,46.6247 36.97698,85.55968 37.32676,86.52218 0.59102,1.62635 -0.66563,1.75 -17.78512,1.75 h -18.42108 l -7.4925,-17.25 -7.49249,-17.25 -40.06715,-0.26124 -40.06714,-0.26123 -7.42531,17.26123 -7.42531,17.26124 -18.67801,0.27198 c -14.79276,0.21541 -18.57495,0.007 -18.18256,-1 z M 322,115.45154 c 0,-2.09751 -24.47071,-56.380831 -25.12245,-55.729087 -0.64951,0.649505 -16.3715,36.260954 -23.41098,53.027547 l -1.36452,3.25 h 24.94898 C 310.77296,116 322,115.75319 322,115.45154 Z m 101,17.58528 V 81 h 17 17 v 35 35 h 51.37756 c 42.16479,0 51.58048,-0.24451 52.50923,-1.3636 0.8172,-0.98466 1.05965,-15.50457 0.87245,-52.249996 L 561.5,46.5 492.25,46.243155 423,45.986309 V 28.968416 11.950523 l 74.25,0.274739 74.25,0.274738 4.57557,2.254766 c 7.43609,3.664382 12.55213,8.743563 16.13243,16.016181 l 3.292,6.686998 V 98.478973 159.5 l -2.77194,5.64286 c -3.3762,6.87297 -9.96348,13.13894 -17.55291,16.69673 L 569.5,184.5 496.25,184.78682 423,185.07365 Z M 643,133 V 81 H 729.5 816 V 97.993155 114.98631 L 746.75,115.24315 677.5,115.5 v 17.5 17.5 l 69.25,0.25685 69.25,0.25684 V 168.00685 185 H 729.5 643 Z m 248.92045,51.01264 c -9.98497,-1.74008 -20.00383,-9.41016 -24.64998,-18.87113 L 864.5,159.5 V 98 36.5 l 2.46807,-5 C 870.13171,25.090832 877.13042,18.087546 883.5,14.957234 L 888.5,12.5 h 62 62 l 4.4693,2.382212 c 7.0046,3.73352 9.8015,6.132561 13.486,11.567511 6.6586,9.82208 6.6545,9.773928 6.3333,74.188877 L 1036.5,158.5 l -2.8074,6 c -3.5375,7.56058 -10.9447,14.64622 -18.5043,17.70125 -5.6841,2.29703 -5.7305,2.29887 -62.1883,2.45411 -31.075,0.0855 -58.5608,-0.20378 -61.07955,-0.64272 z M 1001.3205,149.75 c 1.5712,-1.15338 1.6826,-5.19224 1.4411,-52.25 l -0.2616,-51 h -52 -52 l -0.25918,51.435309 c -0.20401,40.485471 0.009,51.605481 1,52.234691 0.69255,0.43965 23.56067,0.80627 50.81805,0.81469 38.09223,0.0118 49.95283,-0.27391 51.26163,-1.23469 z M 1084,98.5 V 12 l 17.75,0.07079 17.75,0.07079 51.5,59.983113 51.5,59.983117 0.2578,-60.05391 L 1223.0156,12 H 1240.0078 1257 V 98.5 185 h -16.9644 -16.9644 L 1170.7856,124.29871 1118.5,63.597419 1118.2423,124.29871 1117.9845,185 H 1100.9923 1084 Z M 643,29 V 12 H 729.5 816 V 29 46 H 729.5 643 Z"
         id="path847" />
    </g>
  </g>
</svg>
