<?xml version="1.0" encoding="UTF-8" standalone="no"?>
<!DOCTYPE svg PUBLIC "-//W3C//DTD SVG 1.0//EN" "http://www.w3.org/TR/2001/REC-SVG-20010904/DTD/svg10.dtd">
<!-- Created with Inkscape (http://www.inkscape.org/) -->
<svg
   xmlns:svg="http://www.w3.org/2000/svg"
   xmlns="http://www.w3.org/2000/svg"
   version="1.0"
   width="800"
   height="480"
   id="svg2">
  <defs
     id="defs4" />
  <rect
     width="788.0387"
     height="468.68124"
     ry="48.28112"
     x="6.1559572"
     y="6.3319974"
     id="rect3174"
     style="opacity:1;fill:#ffdb00;fill-opacity:1;fill-rule:nonzero;stroke:none;stroke-width:80;stroke-linecap:butt;stroke-linejoin:miter;stroke-miterlimit:4;stroke-dasharray:none;stroke-opacity:1" />
  <path
     d="M 141.85029,396.88404 L 175.47755,396.88404 L 175.5532,401.10859 C 175.55313,408.45679 174.3784,413.58638 172.02898,416.4974 C 169.67945,419.40841 164.47567,420.86392 156.41768,420.86392 L 143.71111,420.93383 L 134.72382,421.0059 C 124.90975,421.0059 118.42721,419.6578 115.27619,416.96157 C 112.12516,414.26535 110.54964,408.43202 110.54965,399.46158 L 110.54965,396.81415 C 110.54964,387.50881 111.73778,381.11447 114.11406,377.63111 C 116.49033,374.14783 122.24974,372.40617 131.39231,372.40613 L 144.40863,372.26196 L 150.68389,372.18988 L 160.98817,372.54811 C 165.94715,372.54816 169.47256,373.69349 171.56437,375.98411 C 173.65606,378.27481 174.70193,381.83022 174.70201,386.65032 L 168.50477,386.65032 C 168.5047,382.45057 167.54907,379.86138 165.63787,378.88275 C 163.72654,377.9042 160.16214,377.4149 154.94463,377.41486 L 144.40863,377.34496 L 138.28705,377.27288 L 128.13645,377.63111 C 124.21145,377.96463 121.43558,378.65634 119.80885,379.70626 C 118.18209,380.75624 117.36872,383.38038 117.36873,387.57868 L 117.05899,399.89191 C 117.05898,405.04555 117.45896,408.97011 118.25895,411.66559 C 119.05891,414.3611 123.2302,415.70885 130.77282,415.70884 L 143.94282,415.853 L 149.52057,415.92509 L 150.68389,415.92509 C 153.05933,415.92509 156.18395,415.75799 160.05776,415.42378 C 163.93147,415.08958 166.38497,413.94425 167.4183,411.98778 C 168.4515,410.03134 168.96813,406.59571 168.9682,401.68089 L 141.85029,401.68089 L 141.85029,396.88404 z M 260.05095,386.87644 C 260.05087,391.17092 259.36637,394.11726 257.99742,395.71545 C 256.62833,397.31369 253.64558,398.42298 249.04915,399.04332 C 252.50907,399.47293 255.05282,400.24837 256.68041,401.36966 C 258.30789,402.49098 259.12164,404.53117 259.12171,407.49023 L 259.12171,420.44566 L 252.92212,420.44566 L 252.92212,409.85152 C 252.92206,406.32161 252.10868,403.98399 250.482,402.83864 C 248.8552,401.69333 246.02732,401.12066 241.99835,401.12065 L 206.74672,401.12065 L 206.74672,420.44566 L 200.46909,420.44566 L 200.46909,372.70433 L 242.5398,372.70433 C 248.78979,372.70438 253.27081,373.6706 255.9829,375.60298 C 258.69486,377.53545 260.05087,381.29326 260.05095,386.87644 L 260.05095,386.87644 z M 253.54397,386.51821 C 253.54391,382.79611 252.58828,380.37438 250.67707,379.25304 C 248.76575,378.13177 245.61433,377.57112 241.22281,377.57108 L 206.74672,377.57108 L 206.74672,396.32379 L 241.37885,396.32379 C 245.92486,396.32381 249.08889,395.66778 250.87095,394.35569 C 252.6529,393.04365 253.54391,390.43116 253.54397,386.51821 L 253.54397,386.51821 z M 282.85495,420.43361 L 275.4944,420.43361 L 306.01949,372.69228 L 314.3873,372.69228 L 345.14647,420.43361 L 337.94198,420.43361 L 331.20092,409.69749 L 289.43995,409.69749 L 282.85495,420.43361 z M 292.3837,404.90063 L 328.25718,404.90063 L 310.20457,376.91465 L 292.3837,404.90063 z M 418.66886,386.30414 C 418.6688,389.02297 418.4623,391.43232 418.04937,393.53218 C 417.63632,395.63211 416.82295,397.25472 415.60926,398.40003 C 414.39544,399.54538 412.88456,400.39255 411.0766,400.94152 C 409.26853,401.49055 406.5565,401.76505 402.94052,401.76503 L 366.75965,401.76503 L 366.75965,420.44566 L 360.48203,420.44566 L 360.48203,372.70433 L 403.32829,372.70433 C 408.95878,372.70438 412.92319,373.6706 415.22149,375.60298 C 417.51967,377.53545 418.6688,381.1025 418.66886,386.30414 L 418.66886,386.30414 z M 412.16188,386.5903 C 412.16183,383.24972 411.49032,380.91137 410.14737,379.57523 C 408.80431,378.23917 406.32479,377.57112 402.70881,377.57108 L 366.75965,377.57108 L 366.75965,396.96818 L 399.14557,396.96818 C 404.30949,396.96821 407.76986,396.37187 409.5267,395.17919 C 411.28343,393.98655 412.16183,391.1236 412.16188,386.5903 L 412.16188,386.5903 z M 443.47531,420.43361 L 437.19768,420.43361 L 437.19768,372.69228 L 443.47531,372.69228 L 443.47531,393.37814 L 491.66524,393.37814 L 491.66524,372.69228 L 497.86483,372.69228 L 497.86483,420.43361 L 491.66524,420.43361 L 491.66524,398.17282 L 443.47531,398.17282 L 443.47531,420.43361 z M 534.49228,420.43361 L 528.21466,420.43361 L 528.21466,372.69228 L 534.49228,372.69228 L 534.49228,420.43361 z M 599.35003,420.71838 L 586.02398,420.93245 L 580.29255,421.00453 L 568.82494,420.50431 C 559.63036,419.64514 555.03309,415.08784 555.03309,406.83242 L 554.72335,397.74331 C 554.72335,394.11584 554.76196,391.41925 554.8392,389.65353 C 554.91644,387.88788 555.29082,385.43047 555.96232,382.28133 C 556.63382,379.13225 558.26095,376.74657 560.84373,375.12428 C 563.42649,373.50207 567.01612,372.69095 571.61263,372.6909 C 573.67914,372.50019 575.62942,372.38077 577.46348,372.33267 C 579.29747,372.28466 581.45425,372.26063 583.9338,372.26058 L 585.79226,372.26058 L 593.23083,372.1885 C 596.22576,372.18855 598.65327,372.24825 600.51335,372.36762 C 602.37333,372.48708 604.81384,372.8333 607.83488,373.40628 C 610.8558,373.97935 612.96055,375.50658 614.14915,377.98797 C 615.33761,380.46944 615.93188,383.78529 615.93195,387.93553 L 609.73235,387.93553 L 609.73235,387.5074 C 609.73229,385.35948 609.59043,383.5938 609.30674,382.21034 C 609.02296,380.82694 608.35145,379.82506 607.29223,379.20466 C 606.2329,378.58434 604.28303,378.10706 601.44258,377.77281 C 598.60203,377.43865 594.67625,377.27155 589.66524,377.2715 C 587.80674,377.27155 584.99225,377.34326 581.22177,377.48666 C 577.45123,377.63014 574.60995,377.70186 572.69792,377.70182 C 568.25588,378.03534 565.415,378.76273 564.17524,379.88399 C 562.93547,381.00534 562.16072,382.94978 561.85099,385.71732 C 561.54123,388.48494 561.36074,391.00204 561.30953,393.26864 C 561.25829,395.5353 561.23267,397.69454 561.23268,399.74636 C 561.23267,405.80724 561.89118,409.98263 563.20819,412.27256 C 564.52517,414.5625 568.02416,415.70747 573.70518,415.70746 L 585.79226,415.85163 L 597.33552,415.70746 C 602.08803,415.70747 605.39391,415.18286 607.25323,414.13363 C 609.11241,413.08442 610.04203,410.5553 610.0421,406.54627 L 610.0421,404.61311 L 616.55143,404.61311 C 616.55136,410.86475 615.5181,415.11187 613.45164,417.35447 C 611.38504,419.59708 606.68451,420.71838 599.35003,420.71838 L 599.35003,420.71838 z M 679.29241,378.91988 C 678.20786,378.44228 676.24537,378.04837 673.40492,377.73814 C 670.56438,377.42801 666.89712,377.27292 662.40312,377.27288 L 660.23255,377.27288 C 656.82455,377.27292 653.29955,377.416 649.65753,377.70211 C 646.01547,377.9883 643.36807,378.46558 641.71533,379.13395 C 640.06257,379.8024 639.00369,380.70891 638.53869,381.85348 C 638.07368,382.99812 637.84117,384.38227 637.84118,386.00594 C 637.84117,388.91553 638.70655,390.89529 640.43735,391.94521 C 642.16811,392.99519 644.68625,393.52016 647.99178,393.52014 L 653.64755,393.6643 L 665.81266,393.59221 C 667.9296,393.59225 669.81446,393.61627 671.46725,393.6643 C 673.11996,393.71238 675.61209,393.90315 678.94365,394.2366 C 682.27511,394.5701 684.96113,395.65536 687.00171,397.49238 C 689.04217,399.32946 690.06243,402.46728 690.06249,406.90588 C 690.06243,409.81691 689.57181,412.23863 688.59062,414.17106 C 687.60931,416.10348 685.94356,417.55863 683.59335,418.53649 C 681.24303,419.51436 678.40214,420.14673 675.07068,420.43361 C 671.73912,420.72048 668.11087,420.86392 664.18592,420.86392 L 660.07886,420.86392 C 656.20427,420.86392 653.29877,420.82788 651.36231,420.7558 C 649.4258,420.68371 646.45604,420.40922 642.45304,419.93229 C 638.45001,419.45538 635.59612,418.20301 633.89136,416.1752 C 632.18659,414.1474 631.3342,410.60401 631.3342,405.54502 L 637.60946,405.54502 L 637.60946,406.54764 C 637.60946,408.98102 637.85496,410.78239 638.34599,411.95174 C 638.83699,413.12111 640.10237,413.97993 642.14212,414.52819 C 644.18184,415.07647 646.90648,415.43434 650.31603,415.6018 C 653.72555,415.76927 657.08306,415.85301 660.38861,415.853 C 665.7606,415.85301 670.29326,415.63822 673.98658,415.20862 C 677.67979,414.77904 680.19794,413.96791 681.541,412.77525 C 682.88396,411.58259 683.55546,409.62614 683.55552,406.90588 C 683.55546,403.47063 682.69007,401.28773 680.95935,400.35718 C 679.22851,399.42666 676.29739,398.96139 672.16594,398.96137 L 660.31059,398.8172 L 646.44306,398.45897 C 641.58803,398.45899 637.84314,397.60017 635.20836,395.88251 C 632.57357,394.1649 631.25617,391.25425 631.25618,387.15054 C 631.25617,383.90608 631.82443,381.19821 632.96095,379.02692 C 634.09746,376.85571 636.02172,375.30481 638.73376,374.37423 C 641.44577,373.44374 644.63542,372.84705 648.30271,372.58415 C 651.96994,372.32135 656.07581,372.18992 660.62033,372.18988 C 664.39079,372.18992 667.11544,372.22597 668.79424,372.298 C 670.47296,372.37013 673.2106,372.58493 677.00717,372.94239 C 680.80363,373.29994 683.70915,374.50461 685.72372,376.55641 C 687.73818,378.60829 688.74543,381.7341 688.74549,385.93385 L 682.47023,385.93385 C 682.47018,383.78594 682.19905,382.18699 681.65687,381.13701 C 681.11455,380.0871 680.32641,379.34806 679.29241,378.91988 L 679.29241,378.91988 z"
     id="text3462"
     style="font-size:96.56988525px;font-style:normal;font-variant:normal;font-weight:normal;font-stretch:normal;text-align:start;line-height:100%;writing-mode:lr-tb;text-anchor:start;fill:#000000;fill-opacity:1;stroke:none;stroke-width:1px;stroke-linecap:butt;stroke-linejoin:miter;stroke-opacity:1;font-family:Eurostile Extended;-inkscape-font-specification:Eurostile Extended" />
  <path
     d="M 191.71537,53.136352 C 146.6209,53.136352 109.34755,90.409696 109.34755,135.50417 L 109.34755,136.05843 C 109.34755,181.1529 146.6209,218.40215 191.71537,218.40215 L 333.82275,218.40215 C 345.8072,218.40215 354.49904,227.06988 354.49904,239.05434 L 354.49904,239.6086 C 354.49904,251.59305 345.80721,260.2849 333.82275,260.2849 L 109.34755,260.2849 L 109.34755,321.97642 L 333.82275,321.97642 C 378.91722,321.97642 416.19056,284.70308 416.19056,239.6086 L 416.19056,239.05434 C 416.19055,193.95988 378.91723,156.71063 333.82275,156.71063 L 191.71537,156.71063 C 179.73091,156.71063 171.03907,148.04289 171.03907,136.05843 L 171.03907,135.50417 C 171.03907,123.51971 179.73091,114.82787 191.71537,114.82787 L 416.19056,114.82787 L 416.19056,53.136352 L 191.71537,53.136352 z"
     id="rect3468"
     style="opacity:1;fill:#000000;fill-opacity:1;fill-rule:nonzero;stroke:none;stroke-width:80;stroke-linecap:butt;stroke-linejoin:miter;stroke-miterlimit:4;stroke-dasharray:none;stroke-opacity:1" />
  <path
     d="M 440.4334,53.136352 C 440.61528,54.904292 440.72258,56.69269 440.72258,58.510261 L 440.72258,114.82787 L 604.56658,114.82787 C 616.55103,114.82787 625.24287,123.49561 625.24287,135.48007 L 625.24287,136.03433 C 625.24287,148.01879 616.55104,156.71063 604.56658,156.71063 L 450.94024,156.71063 L 450.94024,218.40215 L 604.56658,218.40215 C 616.55102,218.40215 625.24287,227.06988 625.24287,239.05434 L 625.24287,239.6086 C 625.2429,251.59306 616.55104,260.2849 604.56658,260.2849 L 440.72258,260.2849 L 440.72258,314.62645 C 440.72258,317.1202 440.53164,319.57925 440.19242,321.97642 L 604.56658,321.97642 C 649.66104,321.97642 686.93439,284.70308 686.93439,239.6086 L 686.93439,239.05434 C 686.93439,219.64714 680.03113,201.68953 668.57153,187.53229 C 680.02409,173.3722 686.93439,155.4349 686.93439,136.03433 L 686.93439,135.48007 C 686.93439,90.385598 649.66106,53.136352 604.56658,53.136352 L 440.4334,53.136352 z"
     id="path3477"
     style="opacity:1;fill:#000000;fill-opacity:1;fill-rule:nonzero;stroke:none;stroke-width:80;stroke-linecap:butt;stroke-linejoin:miter;stroke-miterlimit:4;stroke-dasharray:none;stroke-opacity:1" />
</svg>
